PathFileType	4	(X/Y/Z)	/Volumes/GoogleDrive/My Drive/Research/Stanford/Projects/Digital Athlete Project/Sprinting/Sprint Simulation/sprinter/subjects/JA1/experimental_data/TRC/run0700cms.trc
DataRate	CameraRate	NumFrames	NumMarkers	Units	OrigDataRate	OrigDataStartFrame	OrigNumFrames
250.000000	250.000000	4	51	mm	250.000000	52	413
Frame#	Time	LPAT			RWR			LASI			LMFS			C7			LSH			RSH			RTHLD			T7			RTHLP			RARM			LLEPI			LLMAL			P3			RELB			RFOREARM			SACR			P1			P2			RTILAT			RTHAP			LTHLP			RLEPI			RPAT			LTIAD			LFOREARM			RLMAL			RP5MT			LTHLD			RMFL			LARM			LMFL			LTOE			RTHAD			MAN			RTOE			LTILAT			LHEEL			RHEEL			RMFS			LELB			RP1MT			RTIAP			LWR			RASI			LTHAP			LTHAD			LTIAP			RTIAD			LP5MT			LP1MT			
		X1	Y1	Z1	X2	Y2	Z2	X3	Y3	Z3	X4	Y4	Z4	X5	Y5	Z5	X6	Y6	Z6	X7	Y7	Z7	X8	Y8	Z8	X9	Y9	Z9	X10	Y10	Z10	X11	Y11	Z11	X12	Y12	Z12	X13	Y13	Z13	X14	Y14	Z14	X15	Y15	Z15	X16	Y16	Z16	X17	Y17	Z17	X18	Y18	Z18	X19	Y19	Z19	X20	Y20	Z20	X21	Y21	Z21	X22	Y22	Z22	X23	Y23	Z23	X24	Y24	Z24	X25	Y25	Z25	X26	Y26	Z26	X27	Y27	Z27	X28	Y28	Z28	X29	Y29	Z29	X30	Y30	Z30	X31	Y31	Z31	X32	Y32	Z32	X33	Y33	Z33	X34	Y34	Z34	X35	Y35	Z35	X36	Y36	Z36	X37	Y37	Z37	X38	Y38	Z38	X39	Y39	Z39	X40	Y40	Z40	X41	Y41	Z41	X42	Y42	Z42	X43	Y43	Z43	X44	Y44	Z44	X45	Y45	Z45	X46	Y46	Z46	X47	Y47	Z47	X48	Y48	Z48	X49	Y49	Z49	X50	Y50	Z50	X51	Y51	Z51	
52	0.208000	-3594.928711	758.366821	137.088684	-3619.551270	1196.035889	395.715118	-3962.599121	1036.205444	92.423515	-3993.104736	421.010559	155.419785	-4070.127686	1510.682617	204.978912	-4045.855225	1489.412598	30.391106	-4017.434082	1491.821289	369.782501	-4146.687500	651.102600	355.579224	-4138.849121	1322.584595	209.087692	-4125.152344	760.997070	376.004364	-3979.892090	1310.928345	467.175049	-3679.555420	735.914246	68.176842	-4045.601807	512.620972	103.566757	-4189.758301	1001.879089	187.070969	-3939.906250	1186.838745	514.298340	-3801.885986	1195.916382	461.750702	-4145.800293	1084.411133	191.698471	-4155.718262	1055.909180	137.308167	-4164.106445	1057.139893	243.623840	-4359.310547	354.856140	287.637665	-4010.635742	709.907471	305.102783	-3862.151855	836.261475	16.032494	-4197.016602	509.670166	318.471039	-4116.182129	482.056183	273.416565	-3903.967529	562.848206	156.670288	-4285.890137	1106.192383	-87.959892	-4516.037598	186.485840	229.270493	-4438.632324	58.934143	259.921326	-3756.625732	794.493896	31.750341	-4481.562012	118.088295	235.264893	-4160.778320	1349.632080	-58.124836	-4032.126953	433.695038	92.807121	-3970.918457	332.543060	144.708145	-4047.399902	616.561890	290.101990	-3931.609863	1409.869873	190.649704	-4368.996582	73.189857	171.322876	-3861.053955	625.160767	80.032242	-4111.955078	545.075012	153.036240	-4585.431641	202.670944	181.495331	-4425.828125	128.461258	181.960373	-4265.824707	1255.560791	-89.085808	-4401.604492	69.393127	137.358994	-4314.156250	344.662598	212.859283	-4347.494141	923.170654	-90.713249	-3969.479492	1026.497559	304.693604	-3794.733398	945.218140	99.548523	-3695.123047	885.449768	107.962326	-3780.249268	625.777344	152.012604	-4408.551270	262.593567	184.902969	-4025.275146	358.940704	63.425026	-4005.227295	339.587585	183.747574
53	0.212000	-3562.003174	770.201599	138.250519	-3589.467285	1221.707642	388.087982	-3932.352295	1038.397583	92.366707	-3938.372803	408.318542	157.065399	-4043.052979	1512.256226	205.517014	-4019.953613	1492.071899	31.327185	-3990.879883	1494.717163	369.153870	-4127.054688	655.456360	355.796844	-4109.857910	1322.993774	210.652786	-4101.644531	764.492004	376.192139	-3948.898926	1314.873413	466.273407	-3646.167969	744.285156	69.579926	-3997.564941	497.029083	105.699471	-4158.115723	1004.572815	188.355484	-3905.974854	1191.718262	512.443054	-3769.883057	1209.305542	457.679413	-4113.943359	1087.380615	193.105911	-4124.817383	1058.941284	138.711884	-4132.391602	1059.609131	245.111877	-4349.596191	363.963501	288.766418	-3989.722656	709.586487	303.177795	-3830.906738	842.443054	17.875282	-4184.142090	517.105591	318.608673	-4105.555176	486.431091	273.080933	-3860.238037	555.399719	157.033035	-4266.466797	1114.920410	-87.080734	-4506.925293	194.655884	231.313553	-4437.644531	59.701275	259.965881	-3725.099121	801.856323	33.649696	-4475.786621	122.465347	236.366898	-4136.479004	1355.619629	-57.950874	-3978.985840	419.546173	94.090630	-3910.229492	322.512329	144.702698	-4029.932373	617.903015	287.626099	-3904.202881	1413.138306	189.608337	-4367.953613	73.640678	171.899857	-3820.937744	621.893066	81.589073	-4065.795898	524.698364	155.854324	-4574.477051	213.954834	183.389603	-4418.977539	130.039001	183.629883	-4243.906250	1263.907104	-88.689125	-4401.145508	70.022171	137.075653	-4303.693848	351.577576	214.340927	-4330.784668	932.690918	-88.134460	-3937.727783	1026.104126	304.189209	-3765.629639	953.422729	99.103775	-3665.091797	895.063721	108.473785	-3739.725098	626.936646	152.786575	-4398.020508	269.630127	186.777512	-3967.061035	345.758606	64.040649	-3944.205566	326.571320	184.150284
54	0.216000	-3529.937988	780.951782	139.228745	-3560.988525	1247.248535	380.664734	-3902.012207	1040.443359	92.195671	-3883.110107	396.848694	157.669586	-4015.879395	1513.596191	206.113113	-3994.071045	1494.705566	32.113537	-3964.200684	1497.524902	368.548950	-4107.024902	660.231140	355.834137	-4080.797119	1323.452881	212.410278	-4077.720947	768.209045	376.343933	-3917.770508	1318.874634	465.353882	-3613.326416	752.217834	70.968475	-3948.766602	481.864319	107.929276	-4127.571289	1007.828308	190.198990	-3872.144531	1196.507202	510.677124	-3738.835938	1222.703857	453.463654	-4082.356689	1090.162231	194.486176	-4093.844238	1061.797729	140.133942	-4100.314941	1062.331421	246.634262	-4338.534668	373.513123	289.984131	-3967.903564	710.127502	302.519470	-3799.921875	848.078064	19.164495	-4170.609863	525.070679	318.558319	-4094.039795	491.388519	272.335052	-3814.794922	548.664490	158.130157	-4246.767578	1123.599609	-86.008476	-4496.199707	202.686951	233.647186	-4436.237793	60.719463	260.130829	-3694.036377	808.501831	35.363789	-4469.317383	127.055946	238.023499	-4112.733398	1361.847412	-57.645252	-3924.950195	405.936340	95.493217	-3849.595703	313.331696	144.519592	-4011.828857	620.080078	285.710297	-3876.745361	1416.293579	188.502609	-4366.356445	74.034523	172.705032	-3780.574707	618.299988	83.219475	-4018.249023	504.569031	158.789459	-4561.785156	225.432144	185.480881	-4411.930176	131.102829	185.544571	-4219.650879	1272.212402	-88.655052	-4399.333984	70.526421	137.550751	-4292.023438	359.026337	216.082413	-4313.239258	942.036133	-85.350227	-3905.687744	1025.767090	303.785126	-3736.507080	960.725952	98.840340	-3635.141113	903.771667	108.873375	-3699.286865	627.792297	153.511292	-4386.131836	276.835114	189.343307	-3908.304932	333.539032	64.625374	-3883.137207	314.813965	184.333588
55	0.220000	-3498.454590	790.830505	139.774673	-3533.613281	1272.339355	374.056763	-3871.605713	1042.112671	91.818985	-3827.908691	386.701996	158.895447	-3988.582031	1515.036133	206.691742	-3968.053223	1497.308716	33.103634	-3937.197754	1500.111328	367.898376	-4086.962891	665.468567	355.776215	-4051.624512	1324.061890	214.112061	-4053.603516	772.187134	376.474365	-3886.450195	1322.953979	464.444214	-3581.269043	759.393982	71.982994	-3899.342041	466.992218	110.045570	-4096.722656	1010.957153	192.002045	-3838.134277	1201.244385	509.151123	-3708.408447	1235.895386	449.484314	-4051.181641	1093.100830	196.076065	-4062.970459	1064.721313	141.674118	-4068.457031	1065.141113	248.266571	-4326.435547	383.635559	291.296326	-3946.343262	711.005432	301.839417	-3769.191895	853.353455	20.364511	-4156.414551	533.916870	318.494385	-4081.375244	497.218231	271.949310	-3769.165771	542.080505	159.337189	-4224.228027	1132.495483	-85.684212	-4483.668945	210.605301	236.283035	-4434.066895	62.166386	260.438416	-3663.277344	814.715393	37.014809	-4461.591797	132.222382	239.789398	-4088.582520	1368.084595	-57.272202	-3870.725098	393.128906	96.600975	-3788.740723	305.781097	144.528305	-3993.394287	622.837280	284.525848	-3849.395020	1419.364136	187.539444	-4363.714355	74.118454	173.293503	-3740.233398	614.314270	84.682182	-3969.550537	484.524292	162.115112	-4547.449219	237.163513	187.918808	-4403.913574	132.688553	187.865524	-4197.739258	1280.788330	-88.008461	-4396.644043	71.299225	138.156662	-4278.398926	366.590088	217.666946	-4294.677246	951.121155	-82.492592	-3874.447021	1025.606079	303.231964	-3707.322510	967.473938	98.742790	-3605.425293	911.415833	108.919403	-3658.990234	628.352051	154.175888	-4372.793945	284.190948	191.855682	-3849.532227	322.127808	65.312950	-3822.260742	304.734894	184.487244
